<?xml version="1.0"?>
<svg version="1.1" xmlns="http://www.w3.org/2000/svg" width="500px" height="210px" style="border: dashed 2px #aaa"><path fill="#ffffff" d="M185.08,98.695q1.365,0,1.365,0.975q0,3.965-10.92,22.685q0.455,1.755,1.43,4.095l19.37-14.755q11.115-8.45,15.015-10.855q8.71-5.2,17.095-5.2q2.405,0,4.42,0.78q1.235,0.455,1.235,1.69t-0.65,1.235q-0.39,0-0.8125-0.52t-2.47-0.52t-6.6625,1.04q-7.28,1.625-16.51,7.28q-5.785,3.575-15.47,10.985t-13.975,10.205q3.315,6.955,8.515,12.935q7.995,9.295,14.365,9.295q3.12,0,3.12-2.405q0-0.455-0.0975-0.91t0.2275-1.105t0.78-0.65q0.845,0,1.105,2.015q0.065,0.325,0.065,0.65q0,2.08-2.1125,3.4125t-5.005,1.3325t-4.8425-0.91q-5.135-2.535-10.3675-8.905t-8.0275-13.39q-3.575,2.08-5.915,2.275q-4.355,5.655-10.725,10.985q-3.445,2.925-7.475,4.7125t-7.735,1.7875q-5.265,0-8.125-2.6325t-2.86-8.0275q0-2.665,1.04-4.94q3.315-7.345,10.01-10.14q3.705-1.625,7.3775-1.625t4.9075,2.405q0.455,0.845,0.455,1.7875t-0.26,1.2025t-0.715-0.455q-1.56-2.86-3.315-3.185q-1.17-0.13-1.69-0.13q-5.07,0-9.49,4.225q-5.72,5.525-5.72,11.96q0,7.02,7.93,7.93l0.52,0q2.86,0,7.345-2.535q7.28-4.16,15.535-14.3q-1.495-1.365-1.495-4.03t1.9825-5.0375t5.4275-2.3725q0.975,0,1.82,0.195q3.25-5.46,6.305-11.7975t3.055-7.3125q0-0.13-0.39-0.13t-4.5175,2.0475t-5.8825,3.2175t-4.29,3.6725t-2.535,4.0625q0,0.715,1.0075,1.43t3.6725,0.715q0.325,0.13,0.325,0.3575t-1.7875,0.52t-2.8275,0.2925q-2.34,0-2.34-1.95q0-2.275,2.795-5.46t6.11-5.005q9.685-5.2,12.285-5.2z M174.745,127.815q-0.52-1.3-0.845-2.6q-1.3,1.885-2.6,3.705q0.65,0,1.17-0.0975t2.275-1.0075z M172.275,122.225q-0.78-0.325-1.7225-0.325t-1.885,1.17t-0.9425,2.5025t0.715,2.2425q3.185-4.55,3.835-5.59z M216.29105,124.565l0.91-0.195q0.715,0,1.365,0.585t0.65,0.91t-4.03,6.2725t-4.03,8.2875q0,0.195,0.065,0.39q0.325,1.495,1.43,1.495q3.38,0,12.35-11.18q0.195-0.26,0.455-0.26t0.26,0.4875t-0.585,1.2675q-8.32,11.115-12.675,11.115q-0.585,0-1.105-0.195q-2.86-1.105-2.86-4.29q0-1.105,0.26-2.21l-4.03,3.9q-3.835,3.38-5.5575,3.38t-3.2825-1.105q-1.755-1.3-1.755-3.445q0-4.745,6.63-11.3425t12.155-6.5975q2.145,0,2.86,1.495q0.195,0.52,0.325,0.8775t0.195,0.3575z M196.85605,140.555q0,2.34,1.625,2.34q3.77,0,10.27-8.255l6.89-9.49q-0.52-0.91-1.69-0.91q-3.965,0-10.53,6.1425t-6.565,10.1725z M237.6221,144.325q-4.875,0-4.875-5.395q0-2.73,1.43-5.98t3.12-5.46q-0.325,0.065-0.845,0.065q-1.56,0-2.6-2.21l-4.81,6.24q-4.03,5.005-4.68,5.005q-0.325,0-0.325-0.26q0-0.65,1.105-1.885q5.655-6.565,7.995-11.115q1.495-5.655,3.77-5.655q1.495,0,1.495,1.3t-1.625,3.315l-1.56,2.08q0,1.365,2.015,1.365q1.17,0,2.6-0.845l1.69-1.04q0.13-0.065,0.65-0.065t1.105,0.65t0.39,1.17l-4.485,5.655q-4.16,5.33-4.16,8.4175t2.86,3.0875q2.99,0,7.345-3.185q2.6-1.885,4.745-4.225q2.015-2.34,2.21-2.34q0.455,0,0.455,0.4875t-0.585,1.1375l-2.08,2.34q-1.755,1.82-3.9,3.51q-5.135,3.835-8.45,3.835z M269.80815,123.07l9.36-0.13q0.195,0.13,0.195,0.195q0,0.585-8.0925,1.625t-8.7425,1.235q-1.235,1.105-4.55,6.5975t-3.315,8.0275q0,2.405,3.315,2.405q1.56,0,4.095-0.975t3.9-1.82q3.64-2.275,7.8-6.695q0.91-0.91,1.235-0.91q0.195,0,0.195,0.39t-0.975,1.56q-3.38,4.16-7.605,6.695q-5.07,3.12-9.685,3.12q-2.015,0-3.2825-0.8775t-1.2675-3.5425t2.34-7.3125t3.575-6.9225q-0.91,0.195-1.56,0.195q-1.885,0-1.885-1.495q0-1.105,1.56-1.56q0.195,0,0.585-0.065l3.77,0q1.17-1.495,2.665-3.445q1.82-2.34,2.47-2.34t1.625,0.52t0.975,1.235t-3.12,4.225q1.69,0.065,4.42,0.065z M290.9767,118.0975q0.8775,0.6175,0.8775,1.4625t-0.8125,1.4625t-1.7875,0.6175t-1.7875-0.715t-0.8125-1.625q0-1.82,2.47-1.82q0.975,0,1.8525,0.6175z M277.3592,144.715q-3.315,0-3.315-4.29q0-3.51,3.835-9.7175t6.175-6.2725q0.65,0,1.4625,0.52t0.8125,1.04q-0.325,0.455-0.78,1.0075t-0.975,1.2025t-1.43,1.8525t-1.755,2.3075q-4.875,6.305-4.875,8.6775t1.625,2.3725q1.365,0,3.705-1.495q5.46-3.38,8.645-7.41q1.17-1.495,1.5925-1.495t0.4225,0.52t-1.495,2.08t-2.3725,2.47t-1.2025,1.2025t-1.2025,1.105t-1.3325,1.1375t-1.3,0.975t-1.495,0.9425t-1.495,0.6825q-1.365,0.585-3.25,0.585z M305.90525,144.78q-5.135,0-8.71-8.125q-0.91,1.365-4.095,7.67q-2.34-0.91-2.34-2.47q0-2.795,8.385-15.34t11.505-14.755q0.26-0.195,1.04-0.195q2.015,0,2.015,1.04q0,0.52-4.5175,5.85t-5.0375,6.435q5.915-3.055,9.425-3.055q2.015,0,3.445,1.625q1.365,1.365,1.365,2.795l0,0.39q-0.52,3.705-5.2,6.11q-3.77,2.015-7.02,2.015t-4.55-0.845q-0.39-0.065-0.6175,0.195t-0.0975,0.65q1.82,8.06,6.045,8.06q2.21,0,5.6875-2.47t7.2475-6.955q0.455-0.455,0.8125-0.455t0.3575,0.3575t-0.455,1.0075q-3.51,4.29-6.63,6.76q-4.745,3.705-8.06,3.705z M315.26525,124.89q0-0.52-0.585-1.04t-1.235-0.52q-3.51,0-8.4175,2.925t-6.0125,6.63q0.585,0,3.12,0.195q2.925,0,7.67-2.405q5.46-2.73,5.46-5.785z M324.3763,144.845q-0.715,0-1.3-0.195q-4.16-1.17-4.16-4.68q0-4.55,5.72-10.53t10.27-5.98q1.495,0,2.4375,0.8125t0.9425,1.9825q0,3.64-5.4925,6.955t-8.9375,3.315q-0.52,0-0.91-0.13q-0.975,1.755-0.975,3.705q0,3.38,3.2175,3.38t8.3525-4.355q3.965-3.185,6.76-6.76q0.585-0.78,1.0075-0.78t0.4225,0.39t-0.52,1.105q-3.51,4.615-8.45,8.19t-8.385,3.575z M336.6613,126.125q0-0.78-1.6575-0.78t-4.7125,2.535q-4.095,3.38-6.37,7.085q0.39,0.13,0.845,0.13q2.47,0,6.5975-2.6325t5.1675-5.7525q0.13-0.325,0.13-0.585z M336.99735,151.54q3.12,3.9,5.395,3.9q3.705,0,7.995-5.915q3.12-4.355,6.11-10.985l2.47-5.98l-9.555,7.475q-4.42,3.445-7.085,3.445q-1.43,0-2.275-0.975t-0.845-2.21q0-2.795,4.81-9.1975t7.02-6.4025t2.21,1.495q0,0.585-5.7525,6.7275t-5.7525,8.2875q0,0.845,1.105,0.845q2.08,0,8.3525-4.875t9.4575-8.06q0.715-0.845,2.015-2.535q1.235-1.43,2.73-1.43t1.495,1.43q0,0.26-2.925,4.615t-3.055,4.615q-2.015,3.9-6.175,11.375q-6.305,10.14-12.61,10.14q-2.08,0-3.64-1.7875t-1.495-3.9975z"/><path fill="#" d=""/></svg>
